<svg width="187" height="29" viewBox="0 0 187 29" fill="none" xmlns="http://www.w3.org/2000/svg">
<path fill-rule="evenodd" clip-rule="evenodd" d="M8.11621 0.404297C10.794 0.49198 12.9208 1.93806 14.4814 4.62012C15.5454 6.44868 16.5194 9.31285 17.4502 13.2178L17.8203 14.7441C18.5329 17.6418 19.0825 19.6112 19.459 20.6582L19.6328 21.1045L19.6338 21.1074L19.6934 21.2227C19.7573 21.3277 19.8358 21.4043 19.9258 21.4648C20.0628 21.5571 20.1874 21.5878 20.249 21.5879C20.327 21.5879 20.4144 21.5641 20.5283 21.4414C20.5802 21.3856 20.6324 21.2933 20.6553 21.1201L20.667 20.9189V0.682617H27.584L27.6152 22.3564L27.6064 22.7012C27.5158 24.4046 26.7464 25.8355 25.3877 26.9414L25.3867 26.9434C24.0975 27.9847 22.5545 28.5297 20.8105 28.5938L20.459 28.5996C18.8252 28.5996 17.3293 28.1753 16.0234 27.2842C14.5518 26.2979 13.52 24.8569 12.915 23.0566C12.7805 22.6692 12.2622 20.7719 11.3486 17.4668L11.3467 17.4609C10.5127 14.317 9.7699 11.9353 9.20703 10.3154L8.9043 9.50781C8.60973 8.76215 8.33984 8.19913 8.10059 7.81055C7.93966 7.54918 7.81157 7.39915 7.72363 7.32422C7.71863 7.31995 7.71329 7.31694 7.70898 7.31348C7.62154 7.33977 7.55735 7.3652 7.51367 7.39062C7.47834 7.41121 7.46313 7.4258 7.45801 7.43164C7.38053 7.57768 7.31836 7.76423 7.31836 8.02539V28.2617H0.400391V6.6709C0.400391 4.58114 1.19528 2.91968 2.78125 1.80664C4.13747 0.84171 5.85565 0.400404 7.85547 0.400391L8.11621 0.404297ZM7.85547 1.59961C6.02536 1.59962 4.57161 2.00379 3.47363 2.78613L3.46973 2.78906C2.24187 3.65094 1.59961 4.92384 1.59961 6.6709V27.0615H6.11816V8.02539C6.11816 7.55301 6.23544 7.17452 6.39746 6.86914C6.64395 6.40464 7.13739 6.20968 7.53809 6.11523L7.56055 6.10938L7.58301 6.10645C7.96328 6.04678 8.28122 6.22304 8.50195 6.41113C8.7264 6.60244 8.93132 6.87183 9.12207 7.18164C9.41043 7.64998 9.71155 8.28462 10.0225 9.07227L10.3359 9.91016L10.3379 9.91602L10.5615 10.5713C11.1016 12.1825 11.7692 14.3747 12.5049 17.1475L13.5869 21.0576C13.7145 21.516 13.8157 21.8789 13.8926 22.1465L14.0498 22.665L14.0527 22.6738L14.1562 22.9668C14.6607 24.3128 15.4341 25.3703 16.4668 26.1299L16.6914 26.2881L16.6963 26.291L16.9023 26.4268C17.9421 27.0794 19.1296 27.4004 20.459 27.4004L20.7646 27.3945C22.2753 27.3395 23.5629 26.8729 24.6309 26.0107L24.8457 25.8271C25.888 24.8936 26.4148 23.7398 26.415 22.3584L26.3857 1.88184H21.8672V20.9189L21.8623 21.0986C21.8365 21.5179 21.7135 21.928 21.4072 22.2578C21.102 22.5864 20.7098 22.7881 20.249 22.7881C19.8916 22.788 19.5375 22.6496 19.2559 22.46C18.9575 22.2591 18.6986 21.9741 18.5303 21.5791L18.4385 21.3535C17.9609 20.13 17.2339 17.476 16.2832 13.4971C15.3581 9.61596 14.4159 6.89343 13.4443 5.22363C12.0918 2.89932 10.3744 1.74798 8.2793 1.61328L7.85547 1.59961Z" fill="white"/>
<path fill-rule="evenodd" clip-rule="evenodd" d="M44.5791 0.404297C47.2571 0.491887 49.3836 1.93797 50.9443 4.62012C52.0083 6.44866 52.9823 9.3128 53.9131 13.2178L54.2832 14.7441C54.9958 17.642 55.5463 19.6113 55.9229 20.6582L56.0967 21.1045L56.0977 21.1074L56.1562 21.2227C56.2201 21.3277 56.2988 21.4043 56.3887 21.4648C56.526 21.5573 56.6514 21.5879 56.7129 21.5879C56.7908 21.5878 56.8775 21.5638 56.9912 21.4414C57.043 21.3856 57.0953 21.2933 57.1182 21.1201L57.1309 20.9189V0.682617H64.0469L64.1084 22.3555V22.3574L64.0996 22.7012C64.009 24.4046 63.2396 25.8355 61.8809 26.9414L61.8799 26.9434C60.5048 28.0542 58.8407 28.5996 56.9521 28.5996C55.3183 28.5996 53.8225 28.1752 52.5166 27.2842C51.0449 26.2979 50.0132 24.8569 49.4082 23.0566C49.2737 22.6692 48.7554 20.772 47.8418 17.4668L47.8398 17.4609C47.0045 14.312 46.2613 11.9329 45.6709 10.3193L45.6699 10.3154C45.2555 9.15765 44.8825 8.3287 44.5635 7.81055C44.4026 7.54924 44.2744 7.39914 44.1865 7.32422C44.1815 7.31995 44.1762 7.31694 44.1719 7.31348C44.0846 7.33974 44.0202 7.36523 43.9766 7.39062C43.9198 7.42372 43.9156 7.44164 43.9209 7.43164L43.9131 7.44727L43.9033 7.46191C43.8508 7.54883 43.7812 7.74703 43.7812 8.02539V28.2617H36.8633V6.6709C36.8633 4.58114 37.6582 2.91968 39.2441 1.80664C40.6003 0.841662 42.3186 0.400446 44.3184 0.400391L44.5791 0.404297ZM44.3184 1.59961C42.4883 1.59966 41.0345 2.00379 39.9365 2.78613L39.9336 2.78906C38.7055 3.65094 38.0635 4.92367 38.0635 6.6709V27.0615H42.5811V8.02539C42.5811 7.58488 42.6849 7.17466 42.8613 6.86914C43.1079 6.40447 43.6012 6.20966 44.002 6.11523L44.0234 6.10938L44.0459 6.10645C44.4262 6.04671 44.7441 6.22302 44.9648 6.41113C45.1894 6.60246 45.3951 6.87174 45.5859 7.18164C45.9703 7.80605 46.3761 8.72659 46.7998 9.91016C47.4063 11.5682 48.1582 13.9819 48.998 17.1475L50.0791 21.0576C50.2067 21.5162 50.3089 21.8788 50.3857 22.1465L50.542 22.665L50.5459 22.6738L50.6494 22.9668C51.1539 24.3128 51.9272 25.3703 52.96 26.1299L53.1846 26.2881L53.1895 26.291L53.3955 26.4268C54.4353 27.0793 55.6228 27.4004 56.9521 27.4004C58.5954 27.4004 59.9847 26.9305 61.124 26.0107L61.3389 25.8271C62.3809 24.8938 62.9077 23.7403 62.9082 22.3594L62.8506 1.88184H58.3301V20.9189L58.3252 21.0986C58.2994 21.5179 58.1773 21.928 57.8711 22.2578C57.5659 22.5865 57.1736 22.788 56.7129 22.7881C56.3553 22.7881 56.0005 22.6496 55.7188 22.46C55.4205 22.2591 55.1624 21.9739 54.9941 21.5791L54.9014 21.3535C54.4238 20.1299 53.6967 17.476 52.7461 13.4971C51.8209 9.61589 50.8788 6.89341 49.9072 5.22363C48.5549 2.89957 46.838 1.74818 44.7432 1.61328L44.3184 1.59961Z" fill="white"/>
<path fill-rule="evenodd" clip-rule="evenodd" d="M35.7285 28.29H28.8105V0.908203H35.7285V28.29ZM30.0098 27.0898H34.5283V2.10742H30.0098V27.0898Z" fill="white"/>
<path fill-rule="evenodd" clip-rule="evenodd" d="M88.2969 7.66602H73.9561C73.5004 7.66607 73.2063 7.81503 72.9697 8.13086C72.6912 8.50272 72.5508 8.91145 72.5508 9.43555C72.5508 9.95164 72.6871 10.3326 72.9355 10.6777C73.1688 10.967 73.466 11.121 73.9561 11.1211H88.2969V17.9922H73.3184C73.1176 18.1063 72.9335 18.2955 72.7627 18.5771C72.5989 18.8473 72.5205 19.208 72.5205 19.6211L72.5273 19.8066C72.5581 20.2266 72.6931 20.5946 72.9053 20.8906C73.1386 21.1801 73.4364 21.334 73.9268 21.334H88.2676V28.2051H73.0283C70.6716 28.2051 68.7239 27.3118 67.3145 25.4893C66.0567 23.8771 65.4229 21.9091 65.4229 19.6484C65.4229 18.6655 65.5498 17.7096 65.8037 16.7822C66.0259 15.9708 66.3655 15.2327 66.7764 14.5508C66.3642 13.8913 66.0492 13.1531 65.8076 12.3438C65.5207 11.3823 65.3926 10.4216 65.3926 9.49219C65.3926 7.36962 65.9511 5.53242 67.0576 3.9834L67.2861 3.67773C68.6954 1.85667 70.6423 0.963931 72.998 0.963867H88.2969V7.66602ZM72.998 2.16406C70.9842 2.16412 69.3994 2.90765 68.2344 4.41406L68.2324 4.41602C67.1555 5.79531 66.5928 7.4678 66.5928 9.49219C66.5928 10.3119 66.7051 11.1568 66.957 12.001C67.2123 12.8561 67.5463 13.5839 67.9795 14.1963L68.2148 14.5293L67.9922 14.8701C67.5399 15.5628 67.1807 16.2962 66.9609 17.0986C66.736 17.9201 66.6231 18.7697 66.623 19.6484C66.623 21.5483 67.118 23.1617 68.0664 24.4912L68.2617 24.7529L68.2637 24.7549L68.4873 25.0283C69.6289 26.3515 71.14 27.0049 73.0283 27.0049H87.0674V22.5342H73.9268C73.1042 22.5342 72.4442 22.2393 71.96 21.6309L71.9521 21.6211L71.9443 21.6104C71.5857 21.1186 71.3776 20.5284 71.3311 19.8945L71.3203 19.6211C71.3203 19.0749 71.4221 18.4749 71.7373 17.9551C72.0177 17.4927 72.4005 17.0759 72.9385 16.8418L73.0527 16.792H87.0977V12.3213H73.9561C73.1337 12.3212 72.4744 12.0262 71.9902 11.418L71.9824 11.4072L71.9746 11.3975C71.5702 10.843 71.3506 10.2111 71.3506 9.43555C71.3506 8.66201 71.5689 7.99842 72.0088 7.41113C72.4906 6.76789 73.1546 6.46588 73.9561 6.46582H87.0977V2.16406H72.998Z" fill="white"/>
<path d="M170.155 13.5703L170.166 14.374C170.217 16.1937 170.467 17.6395 171.172 18.8428L171.354 19.126C172.298 20.4973 173.783 21.1991 175.267 21.1992H186.1V28.0654L175.235 28.0361C171.888 28.0358 169.177 27.1606 167.138 25.3799C165.546 23.992 164.451 22.1062 163.802 19.792C163.575 18.9922 163.447 17.8019 163.372 16.6592C163.316 15.7912 163.288 14.9208 163.278 14.2148L163.273 13.5703V0.682617H170.155V13.5703Z" fill="white"/>
<path d="M113.665 7.37793H100.482C99.7499 7.37793 99.0822 7.79646 98.5957 8.5L98.5908 8.50781L98.585 8.51562C98.2304 8.9955 97.9973 9.49477 97.8623 10.3643C97.8375 10.5412 97.8192 10.7135 97.8027 10.8848H113.695V17.75L97.6904 17.7217V28.0361H90.8096V14.1621C90.8096 10.2678 91.1087 8.52261 91.7695 6.76367C92.449 4.94963 93.124 3.84006 94.4697 2.68652C96.0028 1.33072 98.029 0.682617 100.482 0.682617H113.665V7.37793Z" fill="white"/>
<path d="M137.582 7.43457H123.328C122.878 7.43457 122.586 7.58226 122.352 7.89746C122.075 8.26875 121.935 8.67714 121.935 9.20117C121.935 9.71706 122.071 10.0979 122.317 10.4424C122.549 10.7312 122.843 10.8848 123.328 10.8848H137.582V17.749H122.696C122.502 17.8602 122.324 18.0439 122.157 18.3154C122 18.6187 121.905 18.9956 121.905 19.375L121.912 19.5615C121.943 19.9838 122.079 20.3529 122.292 20.6494C122.523 20.9349 122.816 21.0868 123.298 21.0869H137.553V27.9512H122.406C120.062 27.9512 118.125 27.0581 116.725 25.2373C115.553 23.7275 114.926 21.906 114.853 19.8242L114.845 19.4033C114.845 18.4216 114.97 17.4664 115.223 16.54C115.443 15.7297 115.781 14.9927 116.189 14.3115C115.78 13.6526 115.467 12.915 115.227 12.1064C114.977 11.2662 114.849 10.4261 114.821 9.60742L114.815 9.25781C114.815 6.9969 115.446 5.05986 116.696 3.4502C118.097 1.63084 120.033 0.738314 122.376 0.738281H137.582V7.43457Z" fill="white"/>
<path d="M161.797 7.43457H147.542C147.092 7.43465 146.8 7.58234 146.565 7.89746C146.289 8.2687 146.149 8.67726 146.149 9.20117C146.149 9.71947 146.286 10.1015 146.535 10.4473C146.766 10.733 147.06 10.8847 147.542 10.8848H161.797V17.749H146.911C146.713 17.8626 146.53 18.0517 146.36 18.333C146.198 18.6028 146.119 18.9624 146.119 19.375L146.126 19.5615C146.157 19.9818 146.292 20.3497 146.503 20.6455C146.734 20.9337 147.028 21.0869 147.513 21.0869H161.767V27.9512H146.62C144.276 27.9511 142.339 27.0582 140.938 25.2373C139.767 23.7275 139.14 21.9059 139.066 19.8242L139.06 19.4033C139.06 18.4216 139.185 17.4664 139.438 16.54C139.658 15.7294 139.996 14.9919 140.404 14.3105C139.995 13.6518 139.681 12.9148 139.441 12.1064C139.192 11.2662 139.063 10.4261 139.035 9.60742L139.029 9.25781C139.029 6.99689 139.661 5.05985 140.911 3.4502C142.312 1.63096 144.248 0.738281 146.591 0.738281H161.797V7.43457Z" fill="white"/>
</svg>
